<?xml version="1.0" encoding="UTF-8"?>
<svg xmlns="http://www.w3.org/2000/svg" xmlns:xlink="http://www.w3.org/1999/xlink" width="2638" height="2638" viewBox="0 0 2638 2638">
<path fill-rule="evenodd" fill="rgb(100%, 100%, 100%)" fill-opacity="1" d="M 0.152344 0.148438 L 2637.851562 0.148438 L 2637.851562 2637.847656 L 0.152344 2637.847656 L 0.152344 0.148438 "/>
<path fill-rule="evenodd" fill="rgb(0%, 0%, 0%)" fill-opacity="1" d="M 1342.019531 979.738281 L 1342.019531 1803.648438 C 1470.449219 1701.875 1637.660156 1646.140625 1819.410156 1646.140625 C 1863.019531 1646.140625 1901.789062 1648.5625 1942.988281 1655.832031 L 1942.988281 812.539062 C 1904.21875 805.269531 1865.441406 805.269531 1819.410156 805.269531 C 1632.808594 807.691406 1458.339844 870.699219 1342.019531 979.738281 Z M 1819.410156 1697.023438 C 1654.621094 1697.03125 1501.949219 1745.492188 1383.210938 1832.730469 L 2069 1832.730469 L 2069 1013.671875 L 1991.460938 1013.671875 L 1991.460938 1687.335938 C 1991.460938 1694.605469 1989.03125 1701.875 1981.761719 1706.726562 C 1976.910156 1711.566406 1969.648438 1713.992188 1962.371094 1711.566406 C 1916.328125 1701.875 1870.289062 1697.023438 1819.410156 1697.023438 Z M 1249.941406 1832.730469 C 1136.039062 1745.492188 978.535156 1697.03125 818.601562 1697.03125 C 767.707031 1697.03125 721.671875 1701.875 675.628906 1711.566406 C 668.355469 1713.992188 661.085938 1711.566406 656.242188 1706.726562 C 651.394531 1701.875 646.550781 1694.605469 646.550781 1687.339844 L 646.550781 1013.679688 L 569 1013.671875 L 569 1832.730469 Z M 1293.558594 1803.652344 L 1293.558594 979.75 C 1179.660156 870.699219 1010.03125 807.699219 821.019531 807.699219 C 774.976562 807.699219 736.207031 807.699219 697.4375 814.96875 L 697.4375 1658.261719 C 736.207031 1650.988281 777.402344 1648.5625 821.019531 1648.5625 C 1000.339844 1648.5625 1169.96875 1704.300781 1293.558594 1803.652344 "/>
</svg>
